<svg data-v-fde0c5aa="" xmlns="http://www.w3.org/2000/svg" viewBox="0 0 300 300" class="iconAbove"><!----><defs data-v-fde0c5aa=""><!----></defs><rect data-v-fde0c5aa="" fill="transparent" x="0" y="0" width="300px" height="300px" class="logo-background-square"></rect><defs data-v-fde0c5aa=""><linearGradient data-v-fde0c5aa="" gradientTransform="rotate(25)" id="3e00452d-a338-4053-af6d-0a157769d592" x1="0%" y1="0%" x2="100%" y2="0%"><stop data-v-fde0c5aa="" offset="0%" stop-color="#FFFFFF" stop-opacity="1"></stop><stop data-v-fde0c5aa="" offset="100%" stop-color="#FFFFFF" stop-opacity="1"></stop></linearGradient></defs><g data-v-fde0c5aa="" id="d2925a4a-4b9d-4f88-9eb7-fb4612a1ccd4" fill="url(#3e00452d-a338-4053-af6d-0a157769d592)"><path d=""></path></g><defs data-v-fde0c5aa=""><linearGradient data-v-fde0c5aa="" gradientTransform="rotate(25)" id="6e55200a-5a1a-45bd-af51-bddb5bebbd36" x1="0%" y1="0%" x2="100%" y2="0%"><stop data-v-fde0c5aa="" offset="0%" stop-color="#41E296" stop-opacity="1"></stop><stop data-v-fde0c5aa="" offset="100%" stop-color="#00C4EE" stop-opacity="1"></stop></linearGradient></defs><g data-v-fde0c5aa="" id="c86a85c0-4d8d-4a0f-9a30-a865db770a3c" stroke="none" fill="url(#6e55200a-5a1a-45bd-af51-bddb5bebbd36)"><switch><g><path d="M50 5C24.9 5.2 4.8 25.5 5 50.3 5.2 74.9 25.3 95 50 95h.3c12-.1 23.3-4.8 31.7-13.4 8.4-8.6 13.1-19.9 13-31.9C94.8 25.1 74.7 5 50 5zm27.7 72.4C70.4 84.8 60.6 88.9 50.2 89H50c-21.3 0-38.8-17.4-38.9-38.7-.1-21.5 17.2-39 38.7-39.2 21.6 0 39 17.4 39.2 38.7 0 10.4-4 20.2-11.3 27.6z"></path><path d="M25.8 40.2c2.6.7 5.7 1.3 9.1 1.3 4.6 0 9.7-1.2 14.7-4.9 5.8-4.3 12.5-5.4 19.8-3.2 1.5.5 3.2-.4 3.6-1.9.5-1.5-.4-3.2-1.9-3.6-6.3-1.9-15.8-2.8-25 4.1-6.8 5-13.7 4-18.9 2.6-1.5-.4-3.1.5-3.6 2-.3 1.6.6 3.2 2.2 3.6zM80.6 47c-.2-.1-4.4-2.9-10.5-4.2-8.3-1.8-16.2-.2-23 4.7-10.2 7.3-20.7 3.3-24.8 1.2-1.4-.7-3.2-.2-3.9 1.3-.7 1.4-.2 3.2 1.3 3.9 2.8 1.4 8.2 3.7 14.6 3.7 5 0 10.6-1.3 16.2-5.3 5.4-3.9 11.5-5.2 18.2-3.8 5.1 1.1 8.7 3.4 8.7 3.4 1.3.9 3.1.5 4-.8.9-1.4.5-3.2-.8-4.1zM73.2 59.3c-6.3-1.9-15.8-2.8-25 4.1-5.6 4.1-11.9 5.3-18.9 3.4-1.5-.4-3.1.5-3.6 2-.4 1.5.5 3.1 2 3.6 2.2.6 4.9 1.1 7.8 1.1 4.9 0 10.6-1.3 16.1-5.4 5.8-4.3 12.5-5.4 19.8-3.2 1.5.5 3.2-.4 3.6-1.9.6-1.6-.2-3.2-1.8-3.7z"></path></g></switch></g><!----></svg>