<?xml version="1.0" encoding="UTF-8" standalone="no"?>
<!DOCTYPE svg PUBLIC "-//W3C//DTD SVG 1.1//EN" "http://www.w3.org/Graphics/SVG/1.1/DTD/svg11.dtd">
<svg xmlns="http://www.w3.org/2000/svg" xmlns:xlink="http://www.w3.org/1999/xlink" version="1.1" width="98" height="83" viewBox="0 0 98 83">
<desc>Created with SVGMaker Editor 2.2.1</desc>
<defs>
</defs>
<path transform="translate(0,0)" style="fill: rgb(255,255,255)" stroke-linecap="round" d="M89.823 16.691C89.2694 16.2007 88.6913 15.7388 88.091 15.307 86.2092 13.9316 84.1299 12.849 81.924 12.096L81.85 12.071C72.8648 9.0202 62.9266 11.6791 56.6651 18.8089 50.4036 25.9387 49.0505 36.137 53.236 44.653L51.88 46.189 32.936 67.709C30.6704 70.2774 30.0679 73.9131 31.384 77.075 31.9059 78.3332 32.7108 79.4542 33.736 80.351 35.5217 81.9208 37.8581 82.7165 40.2307 82.5629 42.6033 82.4093 44.8176 81.319 46.386 79.532 46.431 79.483 46.48 79.432 46.521 79.376L46.521 79.376C48.7568 81.2157 52.0416 80.9826 53.9952 78.8457 55.9489 76.7088 55.8873 73.4163 53.855 71.354L53.695 71.235C53.65 71.202 53.609 71.165 53.572 71.135 53.535 71.105 53.396 70.967 53.314 70.881 52.0501 69.5711 52.0583 67.4931 53.3325 66.1932 54.6067 64.8933 56.6841 64.8435 58.019 66.081L58.134 66.187 58.159 66.162C60.4246 68.0272 63.7611 67.76 65.7011 65.5581 67.6411 63.3562 67.4858 60.0126 65.35 58L66.693 56.472C77.2905 60.1205 88.9887 55.7637 94.6177 46.0718 100.2467 36.3799 98.2344 24.06 89.814 16.663ZM84.708 35.815C84.0151 36.6116 83.1824 37.2748 82.251 37.772 78.2357 39.9321 73.2356 38.6713 70.7247 34.8655 68.2138 31.0597 69.0219 25.9669 72.5876 23.1253 76.1534 20.2838 81.2981 20.6327 84.4475 23.9297 87.5968 27.2268 87.7099 32.3821 84.708 35.814Z"/>
<path transform="translate(0,0)" style="fill: rgb(76,162,240)" stroke-linecap="round" d="M35.525 46.164C38.3205 45.2408 39.8724 42.2594 39.025 39.44L40.95 38.797C43.5379 41.7868 46.838 44.0757 50.545 45.452 43.1189 37.4987 42.1336 25.484 48.1647 16.4272 54.1958 7.3703 65.6614 3.6468 75.863 7.432 69.492 0.6248 59.6957-1.7655 50.9054 1.3422 42.1151 4.4498 35.998 12.4661 35.321 21.765L33.376 22.408 6.142 31.455C1.4445 33.0133-1.1003 38.0845 0.458 42.782 2.0163 47.4795 7.0875 50.0243 11.785 48.466L11.985 48.4 11.985 48.4C13.001 51.0974 15.944 52.5347 18.696 51.6776 21.4479 50.8205 23.0543 47.9662 22.359 45.169 22.33 45.112 22.306 45.046 22.281 44.985 22.2587 44.9378 22.2409 44.8886 22.228 44.838 22.187 44.719 22.158 44.6 22.128 44.486 21.7625 42.7429 22.8181 41.0167 24.5363 40.5479 26.2545 40.079 28.0405 41.0298 28.611 42.717 28.6203 42.7692 28.6354 42.8202 28.656 42.869L28.689 42.869C29.6977 45.6384 32.7279 47.1015 35.524 46.169Z"/>
</svg>