<?xml version="1.0" encoding="utf-8"?>
<svg xmlns="http://www.w3.org/2000/svg" width="50" height="50" viewBox="0 0 45 46" fill="none">
  <defs>
    <linearGradient gradientUnits="userSpaceOnUse" x1="27.229" y1="14.137" x2="27.229" y2="35.657" id="gradient-0">
      <stop offset="0" style="stop-color: rgb(80, 210, 218);"/>
      <stop offset="1" style="stop-color: rgb(127, 209, 114);"/>
    </linearGradient>
  </defs>
  <circle cx="22.5" cy="22.6074" r="21.84" stroke-width="1.32" style=""/>
  <path d="M 34.745 15.32 C 34.579 15.173 34.405 15.034 34.225 14.905 C 33.661 14.491 33.037 14.166 32.375 13.94 L 32.353 13.932 C 31.035 13.484 29.614 13.436 28.269 13.795 C 26.924 14.154 25.716 14.903 24.798 15.948 C 23.879 16.994 23.291 18.288 23.108 19.668 C 22.925 21.048 23.155 22.451 23.769 23.701 L 23.362 24.161 L 17.679 30.613 C 17.346 30.991 17.125 31.454 17.043 31.951 C 16.961 32.448 17.02 32.958 17.213 33.423 C 17.37 33.8 17.611 34.137 17.919 34.406 C 18.184 34.639 18.493 34.818 18.827 34.932 C 19.161 35.046 19.515 35.094 19.867 35.071 C 20.22 35.048 20.564 34.957 20.881 34.801 C 21.198 34.645 21.481 34.428 21.714 34.163 C 21.727 34.148 21.742 34.133 21.754 34.116 C 22.077 34.382 22.49 34.514 22.907 34.485 C 23.324 34.456 23.714 34.267 23.997 33.959 C 24.279 33.65 24.432 33.245 24.424 32.827 C 24.416 32.409 24.248 32.009 23.954 31.711 L 23.906 31.676 C 23.893 31.666 23.881 31.655 23.87 31.646 C 23.858 31.636 23.817 31.595 23.792 31.569 C 23.61 31.38 23.508 31.127 23.509 30.865 C 23.51 30.602 23.614 30.35 23.798 30.163 C 23.982 29.975 24.231 29.867 24.494 29.861 C 24.756 29.855 25.011 29.952 25.204 30.13 L 25.238 30.162 L 25.246 30.155 C 25.573 30.424 25.991 30.556 26.414 30.522 C 26.836 30.489 27.228 30.293 27.508 29.975 C 27.788 29.657 27.934 29.243 27.914 28.82 C 27.895 28.397 27.711 27.998 27.403 27.708 L 27.806 27.249 C 29.348 27.781 31.026 27.762 32.554 27.194 C 34.081 26.626 35.364 25.545 36.183 24.135 C 37.002 22.726 37.306 21.076 37.043 19.466 C 36.78 17.857 35.967 16.389 34.742 15.312 L 34.745 15.32 Z M 33.21 21.056 C 33.002 21.295 32.753 21.494 32.473 21.643 C 31.892 21.955 31.215 22.038 30.575 21.877 C 29.935 21.715 29.379 21.319 29.015 20.768 C 28.652 20.217 28.508 19.55 28.611 18.899 C 28.715 18.247 29.058 17.658 29.574 17.247 C 30.09 16.836 30.742 16.633 31.4 16.678 C 32.058 16.723 32.676 17.013 33.132 17.491 C 33.588 17.968 33.849 18.599 33.863 19.259 C 33.878 19.918 33.645 20.56 33.21 21.056 L 33.21 21.056 Z" style="paint-order: fill; fill: url(&quot;#gradient-0&quot;);"/>
  <path d="M18.4557 24.1578C18.859 24.0246 19.1944 23.7392 19.3905 23.3625C19.5866 22.9857 19.6279 22.5473 19.5057 22.1406L20.0832 21.9477C20.8595 22.8446 21.8496 23.5313 22.9617 23.9442C21.8795 22.7852 21.2203 21.2949 21.0907 19.7146C20.9611 18.1343 21.3687 16.5565 22.2476 15.2367C23.1264 13.9169 24.4251 12.9325 25.9331 12.4427C27.4412 11.953 29.0705 11.9866 30.5571 12.5382C29.6217 11.5388 28.4154 10.8338 27.0856 10.5093C25.7558 10.1848 24.3603 10.255 23.0698 10.7112C21.7793 11.1675 20.6497 11.99 19.8194 13.0781C18.989 14.1663 18.4938 15.4729 18.3945 16.8381L17.811 17.031L9.64076 19.7451C9.30567 19.8562 8.99576 20.0323 8.72872 20.2632C8.46168 20.4942 8.24274 20.7754 8.08439 21.091C7.76461 21.7282 7.71107 22.4664 7.93556 23.1432C8.16005 23.8199 8.64419 24.3798 9.28145 24.6995C9.91872 25.0193 10.6569 25.0729 11.3337 24.8484L11.3937 24.8286C11.5405 25.2184 11.8307 25.5373 12.205 25.7201C12.5793 25.9029 13.0093 25.9357 13.4069 25.8118C13.8046 25.688 14.1399 25.4168 14.3442 25.0538C14.5485 24.6908 14.6063 24.2635 14.5059 23.8593C14.4972 23.8422 14.49 23.8224 14.4825 23.8041C14.4758 23.7899 14.4704 23.7751 14.4666 23.76C14.4543 23.7243 14.4456 23.6886 14.4366 23.6544C14.3837 23.4025 14.4291 23.1399 14.5634 22.9203C14.6977 22.7007 14.9107 22.5407 15.159 22.4729C15.4074 22.4052 15.6722 22.4348 15.8994 22.5557C16.1266 22.6767 16.299 22.8798 16.3815 23.1237C16.3842 23.1393 16.3888 23.1546 16.395 23.1693H16.4049C16.5504 23.5688 16.8461 23.8958 17.229 24.0807C17.612 24.2656 18.052 24.2938 18.4554 24.1593L18.4557 24.1578Z" style="fill: rgb(76, 162, 240);"/>
</svg>